<?xml version="1.0" standalone="no"?>
<!DOCTYPE svg PUBLIC "-//W3C//DTD SVG 20010904//EN"
 "http://www.w3.org/TR/2001/REC-SVG-20010904/DTD/svg10.dtd">
<svg version="1.0" xmlns="http://www.w3.org/2000/svg"
 width="204.800000pt" height="204.800000pt" viewBox="0 0 204.800000 204.800000"
 preserveAspectRatio="xMidYMid meet">
<metadata>
Created by potrace 1.13, written by Peter Selinger 2001-2015
</metadata>
<g transform="translate(0.000000,204.800000) scale(0.080000,-0.080000)"
fill="#000000" stroke="none">
<path d="M752 1800 c-62 -13 -181 -73 -224 -114 -43 -40 -44 -43 -20 -74 l18
-23 70 69 c77 75 153 118 226 128 70 10 98 0 98 -35 0 -60 -143 -142 -307
-176 l-68 -15 80 5 c133 9 261 54 313 111 30 34 31 99 0 115 -28 15 -132 20
-186 9z"/>
<path d="M140 1652 c0 -18 117 -65 207 -83 111 -23 113 -24 113 -48 0 -9 7
-26 15 -37 22 -29 19 -31 -37 -43 -144 -31 -290 -113 -345 -195 -29 -42 -33
-56 -33 -113 0 -84 23 -124 94 -161 47 -25 60 -27 161 -26 86 0 127 5 188 23
42 13 77 28 77 34 0 5 -10 6 -22 2 -125 -38 -303 -48 -358 -20 -94 49 -77 179
40 296 65 65 125 102 218 135 66 22 69 23 114 6 26 -9 50 -14 53 -10 14 13
-35 47 -72 50 -36 3 -38 5 -41 41 -2 23 -12 46 -28 62 -13 13 -24 19 -24 13 0
-19 -114 0 -202 33 -46 17 -87 35 -92 40 -12 11 -26 12 -26 1z"/>
<path d="M677 1463 c-16 -4 -15 -8 10 -29 38 -32 133 -31 133 2 0 7 -10 16
-22 18 -44 9 -103 13 -121 9z"/>
<path d="M1998 1286 c-21 -8 -49 -21 -64 -30 -60 -40 -126 -174 -118 -241 5
-45 49 -78 92 -71 49 7 108 49 144 102 18 24 40 44 49 44 10 0 20 4 23 9 3 5
-2 8 -12 7 -12 -1 -16 5 -14 19 13 93 14 106 2 120 -15 18 -54 20 -68 3 -20
-26 -23 -75 -7 -116 16 -40 16 -43 -4 -76 -30 -48 -87 -96 -115 -96 -40 0 -52
24 -38 77 29 107 96 209 160 243 42 22 25 25 -30 6z m80 -72 c4 -41 -15 -91
-30 -76 -11 11 -13 85 -3 102 12 19 30 4 33 -26z"/>
<path d="M1045 1278 c-33 -12 -115 -65 -115 -75 0 -4 7 -14 16 -24 15 -17 19
-15 68 37 53 55 88 68 100 38 6 -15 -19 -73 -59 -141 l-19 -31 26 -27 26 -26
16 23 c9 12 16 26 16 31 0 5 18 49 40 98 22 49 40 94 40 99 0 13 -116 11 -155
-2z"/>
<path d="M1309 1271 l-24 -19 35 1 c32 2 35 0 33 -23 0 -14 -26 -79 -57 -144
-31 -64 -56 -123 -56 -131 0 -32 45 4 112 89 105 135 148 177 148 147 0 -6
-25 -62 -57 -125 -31 -64 -54 -118 -52 -120 2 -2 15 -2 29 1 18 3 41 29 80 89
58 89 147 186 137 149 -3 -11 -17 -53 -31 -92 -40 -111 -31 -153 30 -153 22 0
82 40 89 59 5 12 2 12 -12 -1 -34 -30 -63 -40 -78 -28 -11 9 -8 24 17 83 16
40 34 87 40 106 5 19 19 47 30 62 12 15 18 35 15 43 -4 9 -1 16 5 16 6 0 9 2
6 5 -9 10 -38 -7 -31 -18 4 -6 0 -8 -10 -4 -18 7 -90 -42 -107 -73 -6 -11 -17
-20 -25 -20 -11 0 -9 12 12 55 15 30 24 57 20 61 -16 17 -67 -14 -139 -83 -43
-42 -80 -74 -83 -71 -3 3 4 26 16 52 11 26 19 59 17 74 -3 24 -8 27 -44 30
-29 2 -48 -3 -65 -17z"/>
<path d="M2223 1278 c-33 -16 -28 -29 7 -21 28 5 30 4 30 -25 0 -17 -9 -48
-19 -69 -32 -61 -91 -195 -91 -204 0 -5 8 -9 19 -9 12 0 41 30 80 83 81 110
138 174 147 165 4 -4 -7 -38 -24 -76 -18 -37 -35 -82 -38 -100 -6 -27 -4 -31
10 -26 9 3 16 10 16 16 0 5 4 7 9 4 5 -4 35 46 66 110 75 154 78 164 59 164
-30 0 -72 -30 -133 -95 -34 -37 -65 -65 -68 -62 -3 3 2 26 12 50 9 24 15 57
13 73 -3 25 -7 29 -38 31 -19 1 -45 -3 -57 -9z"/>
<path d="M773 1121 c-24 -21 -43 -42 -43 -46 0 -10 77 48 89 67 18 29 -1 20
-46 -21z"/>
<path d="M864 1123 c-11 -18 -20 -52 -22 -93 -4 -62 -3 -66 21 -79 23 -12 30
-11 71 13 43 25 81 65 71 74 -2 3 -23 -12 -45 -32 -41 -37 -69 -46 -71 -23 -3
27 4 54 22 89 23 45 23 43 3 62 -21 22 -29 20 -50 -11z"/>
<path d="M1165 1010 c-21 -22 -24 -30 -13 -30 15 0 54 47 46 56 -3 2 -17 -10
-33 -26z"/>
<path d="M2466 1003 c-16 -19 -42 -37 -58 -40 -18 -4 -25 -9 -18 -13 7 -4 20
-5 30 -3 22 6 83 68 79 80 -2 5 -17 -6 -33 -24z"/>
<path d="M1036 1003 c-13 -13 -5 -43 15 -54 32 -17 42 3 15 34 -13 14 -26 24
-30 20z"/>
</g>
</svg>
